<?xml version="1.0" encoding="UTF-8" standalone="no"?><svg xmlns="http://www.w3.org/2000/svg" xmlns:xlink="http://www.w3.org/1999/xlink" contentStyleType="text/css" height="735px" preserveAspectRatio="none" style="width:585px;height:735px;background:#FFFFFF;" version="1.1" viewBox="0 0 585 735" width="585px" zoomAndPan="magnify"><defs/><g><ellipse cx="299.75" cy="20" fill="#222222" rx="10" ry="10" style="stroke:#222222;stroke-width:1.0;"/><rect fill="#F1F1F1" height="36.4824" rx="12.5" ry="12.5" style="stroke:#181818;stroke-width:0.5;" width="116" x="241.75" y="50"/><text fill="#000000" font-family="sans-serif" font-size="12" lengthAdjust="spacing" textLength="96" x="251.75" y="73.8457">FucQrStripRead()</text><rect fill="#F1F1F1" height="36.4824" rx="12.5" ry="12.5" style="stroke:#181818;stroke-width:0.5;" width="79" x="260.25" y="156.0369"/><text fill="#000000" font-family="sans-serif" font-size="12" lengthAdjust="spacing" textLength="59" x="270.25" y="179.8826">DB_Check</text><polygon fill="#F1F1F1" points="259.75,106.4824,339.75,106.4824,351.75,118.4824,339.75,130.4824,259.75,130.4824,247.75,118.4824,259.75,106.4824" style="stroke:#181818;stroke-width:0.5;"/><text fill="#000000" font-family="sans-serif" font-size="11" lengthAdjust="spacing" textLength="19" x="303.75" y="143.1743">true</text><text fill="#000000" font-family="sans-serif" font-size="11" lengthAdjust="spacing" textLength="80" x="259.75" y="123.6199">ReadCount==3 ?</text><text fill="#000000" font-family="sans-serif" font-size="11" lengthAdjust="spacing" textLength="24" x="351.75" y="116.0654">false</text><ellipse cx="397.75" cy="118.4824" fill="none" rx="11" ry="11" style="stroke:#222222;stroke-width:1.0;"/><ellipse cx="397.75" cy="118.4824" fill="#222222" rx="6" ry="6" style="stroke:#111111;stroke-width:1.0;"/><rect fill="#F1F1F1" height="36.4824" rx="12.5" ry="12.5" style="stroke:#181818;stroke-width:0.5;" width="258" x="170.75" y="262.0737"/><text fill="#000000" font-family="sans-serif" font-size="12" lengthAdjust="spacing" textLength="238" x="180.75" y="285.9194">DB에 해당 Lot, Cutoff값, Exp Date 정보 Save</text><polygon fill="#F1F1F1" points="232.25,212.5193,367.25,212.5193,379.25,224.5193,367.25,236.5193,232.25,236.5193,220.25,224.5193,232.25,212.5193" style="stroke:#181818;stroke-width:0.5;"/><text fill="#000000" font-family="sans-serif" font-size="11" lengthAdjust="spacing" textLength="24" x="303.75" y="249.2112">false</text><text fill="#000000" font-family="sans-serif" font-size="11" lengthAdjust="spacing" textLength="135" x="232.25" y="229.6567">DB에 해당 Lot가 있는 여부?</text><text fill="#000000" font-family="sans-serif" font-size="11" lengthAdjust="spacing" textLength="19" x="379.25" y="222.1023">true</text><polygon fill="#F1F1F1" points="299.75,318.5562,311.75,330.5562,299.75,342.5562,287.75,330.5562,299.75,318.5562" style="stroke:#181818;stroke-width:0.5;"/><rect fill="#F1F1F1" height="36.4824" rx="12.5" ry="12.5" style="stroke:#181818;stroke-width:0.5;" width="110" x="244.75" y="362.5562"/><text fill="#000000" font-family="sans-serif" font-size="12" lengthAdjust="spacing" textLength="90" x="254.75" y="386.4019">알러지 검사 시작</text><rect fill="#F1F1F1" height="36.4824" rx="12.5" ry="12.5" style="stroke:#181818;stroke-width:0.5;" width="110" x="244.75" y="419.0386"/><text fill="#000000" font-family="sans-serif" font-size="12" lengthAdjust="spacing" textLength="90" x="254.75" y="442.8843">스트립 분석 시작</text><rect fill="#F1F1F1" height="36.4824" rx="12.5" ry="12.5" style="stroke:#181818;stroke-width:0.5;" width="228" x="185.75" y="525.0754"/><text fill="#000000" font-family="sans-serif" font-size="12" lengthAdjust="spacing" textLength="208" x="195.75" y="548.9211">검사 실행한 알러지 스트립 lot 정보확인</text><polygon fill="#F1F1F1" points="207.75,581.5579,391.75,581.5579,403.75,593.5579,391.75,605.5579,207.75,605.5579,195.75,593.5579,207.75,581.5579" style="stroke:#181818;stroke-width:0.5;"/><text fill="#000000" font-family="sans-serif" font-size="11" lengthAdjust="spacing" textLength="184" x="207.75" y="598.6953">해당 스트립 lot 정보가 DB에 있을 시 ?</text><text fill="#000000" font-family="sans-serif" font-size="11" lengthAdjust="spacing" textLength="19" x="176.75" y="591.1409">true</text><text fill="#000000" font-family="sans-serif" font-size="11" lengthAdjust="spacing" textLength="24" x="403.75" y="591.1409">false</text><rect fill="#F1F1F1" height="36.4824" rx="12.5" ry="12.5" style="stroke:#181818;stroke-width:0.5;" width="286" x="11" y="615.5579"/><text fill="#000000" font-family="sans-serif" font-size="12" lengthAdjust="spacing" textLength="266" x="21" y="639.4036">DB에 저장되어 있던 CutOff을 이용 tIgE Band 분석</text><rect fill="#F1F1F1" height="36.4824" rx="12.5" ry="12.5" style="stroke:#181818;stroke-width:0.5;" width="257" x="317" y="615.5579"/><text fill="#000000" font-family="sans-serif" font-size="12" lengthAdjust="spacing" textLength="237" x="327" y="639.4036">사용자 지정 CutOff 값을 이용 tIgE Band 분석</text><polygon fill="#F1F1F1" points="299.75,658.0403,311.75,670.0403,299.75,682.0403,287.75,670.0403,299.75,658.0403" style="stroke:#181818;stroke-width:0.5;"/><polygon fill="#F1F1F1" points="246.75,475.521,352.75,475.521,364.75,487.521,352.75,499.521,246.75,499.521,234.75,487.521,246.75,475.521" style="stroke:#181818;stroke-width:0.5;"/><text fill="#000000" font-family="sans-serif" font-size="11" lengthAdjust="spacing" textLength="19" x="303.75" y="512.2129">true</text><text fill="#000000" font-family="sans-serif" font-size="11" lengthAdjust="spacing" textLength="106" x="246.75" y="492.6584">각 스트립 분석 성공 ?</text><text fill="#000000" font-family="sans-serif" font-size="11" lengthAdjust="spacing" textLength="24" x="364.75" y="485.104">false</text><ellipse cx="410.75" cy="487.521" fill="none" rx="11" ry="11" style="stroke:#222222;stroke-width:1.0;"/><ellipse cx="410.75" cy="487.521" fill="#222222" rx="6" ry="6" style="stroke:#111111;stroke-width:1.0;"/><ellipse cx="299.75" cy="713.0403" fill="none" rx="11" ry="11" style="stroke:#222222;stroke-width:1.0;"/><ellipse cx="299.75" cy="713.0403" fill="#222222" rx="6" ry="6" style="stroke:#111111;stroke-width:1.0;"/><line style="stroke:#181818;stroke-width:1.0;" x1="299.75" x2="299.75" y1="30" y2="50"/><polygon fill="#181818" points="295.75,40,299.75,50,303.75,40,299.75,44" style="stroke:#181818;stroke-width:1.0;"/><line style="stroke:#181818;stroke-width:1.0;" x1="299.75" x2="299.75" y1="130.4824" y2="156.0369"/><polygon fill="#181818" points="295.75,146.0369,299.75,156.0369,303.75,146.0369,299.75,150.0369" style="stroke:#181818;stroke-width:1.0;"/><line style="stroke:#181818;stroke-width:1.0;" x1="351.75" x2="386.75" y1="118.4824" y2="118.4824"/><polygon fill="#181818" points="376.75,114.4824,386.75,118.4824,376.75,122.4824,380.75,118.4824" style="stroke:#181818;stroke-width:1.0;"/><line style="stroke:#181818;stroke-width:1.0;" x1="299.75" x2="299.75" y1="192.5193" y2="212.5193"/><polygon fill="#181818" points="295.75,202.5193,299.75,212.5193,303.75,202.5193,299.75,206.5193" style="stroke:#181818;stroke-width:1.0;"/><line style="stroke:#181818;stroke-width:1.0;" x1="299.75" x2="299.75" y1="86.4824" y2="106.4824"/><polygon fill="#181818" points="295.75,96.4824,299.75,106.4824,303.75,96.4824,299.75,100.4824" style="stroke:#181818;stroke-width:1.0;"/><line style="stroke:#181818;stroke-width:1.0;" x1="299.75" x2="299.75" y1="236.5193" y2="262.0737"/><polygon fill="#181818" points="295.75,252.0737,299.75,262.0737,303.75,252.0737,299.75,256.0737" style="stroke:#181818;stroke-width:1.0;"/><line style="stroke:#181818;stroke-width:1.0;" x1="379.25" x2="438.75" y1="224.5193" y2="224.5193"/><polygon fill="#181818" points="434.75,270.3149,438.75,280.3149,442.75,270.3149,438.75,274.3149" style="stroke:#181818;stroke-width:1.0;"/><line style="stroke:#181818;stroke-width:1.0;" x1="438.75" x2="438.75" y1="224.5193" y2="330.5562"/><line style="stroke:#181818;stroke-width:1.0;" x1="438.75" x2="311.75" y1="330.5562" y2="330.5562"/><polygon fill="#181818" points="321.75,326.5562,311.75,330.5562,321.75,334.5562,317.75,330.5562" style="stroke:#181818;stroke-width:1.0;"/><line style="stroke:#181818;stroke-width:1.0;" x1="299.75" x2="299.75" y1="298.5562" y2="318.5562"/><polygon fill="#181818" points="295.75,308.5562,299.75,318.5562,303.75,308.5562,299.75,312.5562" style="stroke:#181818;stroke-width:1.0;"/><line style="stroke:#181818;stroke-width:1.0;" x1="299.75" x2="299.75" y1="342.5562" y2="362.5562"/><polygon fill="#181818" points="295.75,352.5562,299.75,362.5562,303.75,352.5562,299.75,356.5562" style="stroke:#181818;stroke-width:1.0;"/><line style="stroke:#181818;stroke-width:1.0;" x1="299.75" x2="299.75" y1="399.0386" y2="419.0386"/><polygon fill="#181818" points="295.75,409.0386,299.75,419.0386,303.75,409.0386,299.75,413.0386" style="stroke:#181818;stroke-width:1.0;"/><line style="stroke:#181818;stroke-width:1.0;" x1="195.75" x2="154" y1="593.5579" y2="593.5579"/><line style="stroke:#181818;stroke-width:1.0;" x1="154" x2="154" y1="593.5579" y2="615.5579"/><polygon fill="#181818" points="150,605.5579,154,615.5579,158,605.5579,154,609.5579" style="stroke:#181818;stroke-width:1.0;"/><line style="stroke:#181818;stroke-width:1.0;" x1="403.75" x2="445.5" y1="593.5579" y2="593.5579"/><line style="stroke:#181818;stroke-width:1.0;" x1="445.5" x2="445.5" y1="593.5579" y2="615.5579"/><polygon fill="#181818" points="441.5,605.5579,445.5,615.5579,449.5,605.5579,445.5,609.5579" style="stroke:#181818;stroke-width:1.0;"/><line style="stroke:#181818;stroke-width:1.0;" x1="154" x2="154" y1="652.0403" y2="670.0403"/><line style="stroke:#181818;stroke-width:1.0;" x1="154" x2="287.75" y1="670.0403" y2="670.0403"/><polygon fill="#181818" points="277.75,666.0403,287.75,670.0403,277.75,674.0403,281.75,670.0403" style="stroke:#181818;stroke-width:1.0;"/><line style="stroke:#181818;stroke-width:1.0;" x1="445.5" x2="445.5" y1="652.0403" y2="670.0403"/><line style="stroke:#181818;stroke-width:1.0;" x1="445.5" x2="311.75" y1="670.0403" y2="670.0403"/><polygon fill="#181818" points="321.75,666.0403,311.75,670.0403,321.75,674.0403,317.75,670.0403" style="stroke:#181818;stroke-width:1.0;"/><line style="stroke:#181818;stroke-width:1.0;" x1="299.75" x2="299.75" y1="561.5579" y2="581.5579"/><polygon fill="#181818" points="295.75,571.5579,299.75,581.5579,303.75,571.5579,299.75,575.5579" style="stroke:#181818;stroke-width:1.0;"/><line style="stroke:#181818;stroke-width:1.0;" x1="299.75" x2="299.75" y1="499.521" y2="525.0754"/><polygon fill="#181818" points="295.75,515.0754,299.75,525.0754,303.75,515.0754,299.75,519.0754" style="stroke:#181818;stroke-width:1.0;"/><line style="stroke:#181818;stroke-width:1.0;" x1="364.75" x2="399.75" y1="487.521" y2="487.521"/><polygon fill="#181818" points="389.75,483.521,399.75,487.521,389.75,491.521,393.75,487.521" style="stroke:#181818;stroke-width:1.0;"/><line style="stroke:#181818;stroke-width:1.0;" x1="299.75" x2="299.75" y1="682.0403" y2="702.0403"/><polygon fill="#181818" points="295.75,692.0403,299.75,702.0403,303.75,692.0403,299.75,696.0403" style="stroke:#181818;stroke-width:1.0;"/><line style="stroke:#181818;stroke-width:1.0;" x1="299.75" x2="299.75" y1="455.521" y2="475.521"/><polygon fill="#181818" points="295.75,465.521,299.75,475.521,303.75,465.521,299.75,469.521" style="stroke:#181818;stroke-width:1.0;"/><!--MD5=[ac791caae023931975ef5835bdc2b222]
@startuml
start
:FucQrStripRead();
if(ReadCount==3 ?) then (true)
:DB_Check;
else  (false)
stop
endif    
if(DB에 해당 Lot가 있는 여부?) then (true)
else (false)
:DB에 해당 Lot, Cutoff값, Exp Date 정보 Save;
endif
:알러지 검사 시작;
:스트립 분석 시작;
if (각 스트립 분석 성공 ?) then (true)
:검사 실행한 알러지 스트립 lot 정보확인;
    if (해당 스트립 lot 정보가 DB에 있을 시 ?) then (true)
    :DB에 저장되어 있던 CutOff을 이용 tIgE Band 분석;
    else (false)
    :사용자 지정 CutOff 값을 이용 tIgE Band 분석;
    endif
else (false)
stop
endif
stop
@enduml

PlantUML version 1.2022.7(Tue Aug 23 02:01:30 KST 2022)
(GPL source distribution)
Java Runtime: Java(TM) SE Runtime Environment
JVM: Java HotSpot(TM) 64-Bit Server VM
Default Encoding: MS949
Language: ko
Country: KR
--></g></svg>